<?xml version="1.0" encoding="UTF-8"?>
<!DOCTYPE svg PUBLIC "-//W3C//DTD SVG 1.1//EN" "http://www.w3.org/Graphics/SVG/1.1/DTD/svg11.dtd">
<!-- Creator: CorelDRAW -->
<svg xmlns="http://www.w3.org/2000/svg" xml:space="preserve" width="2522px" height="2380px" style="shape-rendering:geometricPrecision; text-rendering:geometricPrecision; image-rendering:optimizeQuality; fill-rule:evenodd; clip-rule:evenodd"
viewBox="0 0 25220 23801.8">
 <defs>
  <style type="text/css">
   <![CDATA[
    .str0 {stroke:#878787;stroke-width:30.0000;stroke-linecap:round;stroke-linejoin:round}
    .str1 {stroke:black;stroke-width:60.0000;stroke-linejoin:round}
    .fil0 {fill:none}
    .fil1 {fill:#FFFFFF}
    .fil2 {fill:#FEFEE9}
   ]]>
  </style>
 </defs>
 <g id="Layer_x0020_1">
  <metadata id="CorelCorpID_0Corel-Layer"/>
  <g id="_140559632">
   <polyline id="_141671304" class="fil2 str1" points="665.985,8005.84 726.003,7880.51 841.045,7945.67 916.065,7760.2 876.057,7710.06 1001.09,7619.83 891.058,7519.58 731,7544.64 705.993,7359.16 871.048,7268.93 771.021,7168.67 1101.13,6882.92 1031.11,6822.77 1106.13,6722.51 911.069,6622.26 866.052,6431.76 1321.21,6301.42 1336.21,6251.29 1601.29,6336.52 1816.37,6166.07 1636.3,5920.43 1751.35,5915.43 1616.31,5719.92 1796.36,5659.76 1676.32,5589.58 1716.33,5143.43 1786.36,5233.66 1916.4,4967.98 1876.39,4952.94 1781.36,4917.84 1701.33,5063.22 1386.22,5073.25 1446.24,4667.2 1581.29,4662.19 1421.24,4516.81 1451.25,4396.49 1626.3,4396.49 1711.34,4501.76 1651.32,4566.93 1766.35,4642.13 1906.4,4642.13 2296.54,4231.07 2386.56,4231.07 2421.57,4436.61 2581.63,4381.45 2561.62,4471.69 2736.68,4501.76 2696.67,4622.08 2861.73,4822.6 2931.75,4797.53 2946.75,5003.07 3116.8,5008.08 3296.87,4862.7 3361.89,4872.73 3361.89,4927.87 3596.97,4962.97 3461.93,5013.09 3496.94,5088.28 3601.97,5038.15 3636.99,5163.48 4052.12,5178.52 4077.13,5113.35 4537.28,5138.42 4657.32,5283.79 4587.31,5313.87 4597.3,5474.28 4727.34,5479.3 4777.37,5023.12 4897.41,5058.21 4997.44,4767.46 5467.59,4882.75 5467.59,4792.53 5467.59,4772.47 5627.65,4797.53 5732.69,4586.99 6077.8,4481.72 6442.92,4145.84 6507.95,4261.14 6978.11,4276.18 6983.1,4035.56 7223.19,4040.57 7328.23,3875.15 7603.32,4070.66 7528.29,3835.05 8328.56,3378.86 8273.54,3188.37 8668.68,3358.82 8703.69,3268.58 8773.71,3388.89 9183.85,3484.13 9093.82,3634.53 9593.99,3719.74 9624,3609.46 9699.03,3659.58 9749.04,3694.68 10019.1,3263.56 9884.08,3148.27 9954.11,3027.95 9839.08,2807.39 10044.1,2712.13 10069.1,2631.93 9899.1,2496.58 10039.1,2451.47 10029.1,2351.2 10129.2,2296.06 9593.99,1799.78 9784.05,1739.63 9759.05,1669.44 10079.2,1559.16 10124.2,1654.4 10309.2,1644.37 10329.2,1524.06 10474.3,1509.03 10449.3,1629.34 10414.3,1629.34 10379.3,1659.41 10459.3,1854.92 10504.3,1859.94 10674.4,1619.31 10954.4,1729.6 10994.5,1574.19 11494.6,1418.79 11609.7,1629.34 11834.7,1183.18 12019.8,1062.87 11934.8,852.326 12149.8,782.148 11904.8,621.735 11984.8,391.133 12490,195.626 12510,105.39 12645,150.514 12780.1,-24.9478 13035.2,70.3076 13010.1,230.72 13170.2,230.72 13245.2,426.228 13380.3,401.162 13425.3,476.348 13555.3,446.273 13695.4,711.958 13860.4,611.706 14155.5,807.214 14225.5,1664.43 14510.6,1664.43 14495.6,1814.81 14575.7,1824.84 14605.7,1724.58 14800.7,1734.61 14920.8,1644.37 15285.9,1644.37 15466,1729.6 15466,1468.92 15781.1,1719.57 15746.1,1905.05 15856.1,2115.59 15766.1,2321.13 15841.1,2812.4 15966.1,2897.62 15876.1,3098.14 16041.2,3198.39 16061.2,3378.86 15676,3664.6 15616,3799.95 15721.1,3910.23 15961.1,3895.19 15731.1,4095.72 15956.1,4211.01 15936.1,4431.58 16221.2,4391.48 16291.2,4571.95 16136.2,4912.83 16456.3,4967.98 16496.3,5128.39 16276.2,5168.49 16376.3,5273.76 16286.2,5614.65 16421.3,5684.82 16381.3,5895.37 16296.2,5980.6 16316.3,6000.64 16221.2,6100.9 16301.3,6186.12 16286.2,6296.41 16446.3,6461.83 16521.3,6652.33 16866.4,6567.11 16721.4,6867.89 16841.4,7093.47 16811.4,7339.11 16901.5,7414.3 16886.4,7579.73 16936.5,7745.16 16991.5,7895.54 17186.5,7955.7 17176.5,8241.45 17316.6,8301.6 17331.6,8311.62 17096.5,8446.97 17236.6,8662.54 17396.6,8617.41 17711.7,8557.26 17871.8,8617.41 18291.9,8988.37 18417,9198.91 18702.1,8913.18 18962.1,9038.5 19297.3,8873.08 19482.3,8943.26 19287.3,8973.33 19287.3,9063.57 19432.3,9138.77 19507.3,8968.32 19542.3,9028.48 19392.3,9244.04 19767.4,9775.41 20517.7,9860.63 20852.8,9645.07 20912.8,9695.2 20672.7,9910.77 20832.8,10181.5 20847.8,10457.2 21027.8,10492.3 21047.9,10487.2 21383,10361.9 21347.9,10432.1 21573,10427.1 21563,10672.7 21653,10697.8 21823.1,10697.8 21818.1,10306.8 22178.2,10291.8 22403.3,10171.4 22533.3,10326.8 22723.4,10306.8 22703.4,10096.2 22783.4,10086.2 22883.5,9835.57 23168.6,9840.58 23173.6,9975.94 23263.6,9875.67 23663.7,9910.77 23768.8,10201.5 23638.7,10552.4 23888.8,10923.4 23988.8,10893.3 24198.9,11209.1 24293.9,11219.1 24484,11479.8 24429,11660.3 24649.1,11931 24589,12166.6 24494,12131.5 24449,12116.5 24469,12632.8 25039.2,12607.7 25069.2,12803.2 25189.2,12848.4 25189.2,12853.4 25179.2,13209.3 24979.2,13174.2 24934.2,13560.2 25089.2,13735.7 25219.3,14186.8 25079.2,14297.1 25214.2,14457.5 25219.3,14467.6 25109.2,14522.7 24984.2,14898.7 24479,15079.1 24173.9,15435.1 23948.8,15364.9 23198.6,15555.4 23188.6,15570.4 22833.5,16237.1 23003.5,16237.1 23288.6,16026.6 23338.6,16121.8 23393.6,16217.1 23533.7,16242.1 23258.6,17189.6 23013.5,16969 23033.5,17194.6 22628.4,17204.6 22523.3,17034.2 22363.3,17019.2 22303.3,17009.1 22283.3,17304.9 22158.2,17224.7 22243.2,17375.1 22218.2,17435.2 21813.1,17435.2 21788.1,17565.6 21478,17896.4 21483,18232.3 21162.9,18523 21297.9,18683.5 21167.9,18783.7 21092.9,18934.1 20997.8,19129.6 21027.8,19179.7 20882.8,19265 20897.8,19355.2 20807.8,19435.4 21102.9,19475.5 20882.8,19651 20932.8,19746.2 20742.7,19686.1 20732.7,19605.8 20437.6,19646 20397.6,19811.4 20432.6,19971.8 20377.6,20037 20512.7,20117.2 20402.6,20433 20152.5,20458 20017.5,20262.5 19972.5,20423 19872.5,20402.9 19827.4,20543.3 19707.4,20377.8 19612.4,20488.1 19277.3,20463.1 19102.2,20783.9 19002.2,20698.7 18952.1,20498.1 18557,20678.6 18497,20558.3 18366.9,20708.7 18392,20809 18427,20909.2 18326.9,20944.3 18412,21074.6 18216.9,21164.9 18241.9,21345.3 18472,21285.2 18502,21395.5 18301.9,21430.6 18226.9,21535.8 18266.9,21686.2 18176.9,21736.4 18226.9,22082.3 18452,22047.2 18642,22217.6 18772.1,22207.6 18887.1,22197.6 18942.1,22483.3 18602,22628.7 18597,22653.7 18582,22829.2 18402,22613.6 18321.9,22789.1 18096.8,22779.1 18121.9,22884.3 17786.7,23004.6 17751.7,23526 17836.8,23546 17806.8,23701.4 17546.7,23826.8 17456.6,23781.6 17391.6,23651.3 16826.4,23490.9 16771.4,23059.8 16881.4,22588.6 16666.4,22593.6 16496.3,22433.2 16596.4,22368 16566.3,22312.8 16501.3,22207.6 16401.3,22197.6 16351.3,22067.2 16191.2,21977 16261.2,21681.2 16126.2,21440.6 16326.3,21295.2 16491.3,21365.4 16416.3,21210 16516.3,21265.1 16506.3,21089.7 16806.4,20889.2 16626.4,20518.2 16551.3,20342.8 16346.3,20342.8 16191.2,20473.1 16031.2,20332.7 15996.1,20302.7 15856.1,20357.8 15691,20107.1 15526,20252.5 15335.9,20107.1 15310.9,19956.7 15095.8,19946.7 14940.8,20072.1 14835.8,19786.3 14635.7,19856.5 14395.6,19701.1 14380.6,19605.8 14475.6,19615.9 14455.6,19360.2 14315.6,19244.9 14330.6,19199.8 14145.5,19089.5 14195.5,18808.8 14125.5,18753.6 14120.5,18683.5 14025.5,18663.4 13915.5,18578.2 13785.4,18583.2 13550.3,18658.4 12990.1,18753.6 13085.2,18803.8 13165.2,18949.1 13085.2,18994.3 13090.2,19154.7 13150.2,19154.7 13140.2,19290 13055.2,19300 13040.1,19440.4 13075.2,19490.5 12855.1,19721.1 12735,19711.1 12670,19776.3 12389.9,19560.7 12109.8,19510.6 12084.8,19640.9 11994.8,19590.8 11989.8,19505.6 12014.8,19455.5 12039.8,19390.3 11979.8,19209.8 11804.7,19189.8 11824.7,19129.6 11734.7,19094.5 11764.7,18979.2 11689.7,18848.9 11614.7,18874 11534.6,18703.5 11494.6,18713.5 11484.6,18658.4 11334.6,18698.5 11229.5,18663.4 11149.5,18713.5 11124.5,18578.2 11049.5,18593.2 11034.5,18733.6 10924.4,18623.3 10874.4,18703.5 10754.4,18598.2 10749.4,18673.4 10744.4,18803.8 10559.3,18728.6 10639.3,18623.3 10539.3,18578.2 10439.3,18643.3 10374.3,18568.2 10274.2,18583.2 10089.2,18432.8 10134.2,18342.6 10094.2,18312.5 10134.2,18232.3 10099.2,18187.2 10159.2,18046.8 10239.2,17936.5 10124.2,17806.2 10104.2,17705.9 10049.1,17605.7 10119.2,17630.7 10134.2,17570.6 9924.1,17360 10019.1,17279.8 9854.08,17044.2 9819.07,17059.3 9734.04,16974 9744.03,16878.8 9654.01,16763.5 9854.08,16708.3 9809.06,16563 9854.08,16387.5 9749.04,16407.6 9734.04,16317.3 9629,16272.2 9523.97,16292.3 9528.97,15996.5 9744.03,15971.4 9739.04,15921.3 9478.95,15941.4 9368.92,15836.1 9358.91,15700.7 9178.84,15675.7 9093.82,15495.2 9068.81,15369.9 9063.82,15369.9 8998.79,15334.8 9008.79,15164.4 8968.77,15149.3 8548.64,15254.6 8618.66,15334.8 8403.58,15560.4 8393.59,15555.4 8278.55,15525.3 8338.57,15379.9 8228.52,15259.6 8258.54,15129.3 8093.48,14898.7 7773.38,14963.8 7533.29,14803.4 7388.25,14943.8 7273.21,14783.4 7338.23,14688.1 7308.22,14532.7 7418.25,14507.7 7388.25,14467.6 7293.22,14332.2 7383.25,14221.9 7263.2,14176.8 7213.19,14292.1 6928.09,14437.5 6968.1,14527.7 6848.06,14663.1 6788.05,14582.9 6783.04,14582.9 6562.97,14607.9 6567.97,14678.1 6442.92,14698.2 6362.9,14552.8 6232.86,14633 6197.85,14798.4 6112.81,14788.4 6162.84,14928.7 6177.84,14958.8 6162.84,15054.1 5987.78,15003.9 5927.76,15249.6 5952.77,15299.7 5822.72,15425 5747.69,15590.5 5817.71,15620.5 5587.64,15775.9 5507.61,15585.4 5152.5,15545.3 4987.44,15735.8 4892.4,15690.7 4812.38,15450.1 4502.27,15364.9 4497.27,15259.6 4387.23,15329.8 4407.24,15389.9 4252.19,15339.8 4167.16,15169.4 4067.12,15134.3 3927.08,15244.6 3852.06,15079.1 3767.03,15064.1 3707.01,15149.3 3501.94,15199.4 3356.89,15094.2 3386.89,14973.9 3261.86,14978.9 3006.77,14643 2876.73,14798.4 2826.71,14693.1 2596.63,14818.5 2456.58,14718.2 2176.49,14703.2 2126.47,14848.5 2186.49,14908.7 2096.47,15059.1 1971.42,14988.9 1781.36,15059.1 1851.39,15144.3 1606.3,15179.4 1521.27,15249.6 1331.2,15174.4 1266.19,15204.5 1171.15,15119.2 1096.12,15114.2 1071.12,14973.9 1056.11,14898.7 861.043,14873.6 726.003,14663.1 801.024,14567.8 565.945,14367.3 660.976,14352.3 741.005,14171.8 720.995,13825.9 821.034,13795.8 781.026,13630.4 946.081,13490 816.038,13424.9 866.052,13274.5 746.014,13189.2 756.007,13053.9 901.064,12978.7 871.048,12933.6 916.065,12858.4 861.043,12713 1036.1,12622.8 761.015,12397.2 786.022,12156.6 1001.09,12136.5 1026.1,12236.8 1141.14,12191.7 1116.13,12061.3 1251.18,12051.3 1211.16,11725.5 1046.11,11660.3 1021.1,11449.7 896.055,11399.6 986.089,11103.8 906.06,11048.7 821.034,10803.1 841.045,10687.8 1021.1,10732.9 931.067,10507.3 986.089,10457.2 956.074,10321.8 941.072,10256.7 705.993,10216.6 741.005,10061.2 525.936,9770.4 505.926,9640.06 330.866,9374.38 435.902,9239.03 310.868,9304.2 275.856,9118.71 0.755995,8812.92 270.847,8336.69 380.88,8356.74 490.924,8166.25 460.909,8030.9 625.964,8096.07 665.985,8005.84 "/>
   <polyline id="_140448480" class="fil0 str0" points="14805.7,10587.5 14800.7,10612.6 14460.6,10632.6 14440.6,10612.6 14105.5,10637.6 14165.5,10577.5 14155.5,10537.4 14050.5,10502.3 14000.5,10542.4 14010.5,10612.6 13940.5,10652.7 14035.5,10788 14030.5,10853.2 14070.5,10893.3 14130.5,10868.2 14325.6,10938.4 14385.6,11003.6 14395.6,10908.3 14495.6,10763 14455.6,10707.8 14490.6,10657.7 14690.7,10642.7 14665.7,10687.8 14695.7,10727.9 "/>
   <polyline id="_140449304" class="fil0 str0" points="13685.4,10657.7 13690.4,10592.5 13665.4,10582.5 13645.4,10527.4 13685.4,10512.3 13675.4,10477.2 13585.3,10442.1 13590.3,10366.9 13470.3,10412.1 "/>
   <polyline id="_140449936" class="fil0 str0" points="13915.5,8807.91 13980.5,8812.92 14030.5,8893.13 14015.5,8953.29 13970.5,8948.27 13965.5,8903.15 13845.4,8903.15 13840.4,8968.32 13725.4,9043.52 13820.4,9168.84 13750.4,9244.04 13825.4,9269.1 13865.4,9244.04 13910.4,9294.17 13880.4,9499.69 13805.4,9539.8 "/>
   <polyline id="_140450760" class="fil0 str0" points="13190.2,8431.93 13215.2,8467.03 13225.2,8467.03 13185.2,8542.23 13135.2,8532.2 13120.2,8547.23 13170.2,8622.43 13120.2,8617.41 13090.2,8702.64 13135.2,8787.85 13200.2,8817.94 13320.2,8968.32 "/>
   <polyline id="_140451456" class="fil0 str0" points="11774.7,9354.32 11759.7,9299.18 11659.7,9279.13 11699.7,9038.5 11634.7,8933.23 11694.7,8792.87 11649.7,8772.82 11574.7,8842.99 11584.7,8752.77 11519.6,8722.68 11524.6,8702.64 "/>
   <polyline id="_140452280" class="fil0 str0" points="15751.1,8517.16 15736.1,8296.59 15531,8256.48 15551,8076.01 16041.2,8221.39 16176.2,8040.92 16251.2,8045.94 16116.2,7930.64 16206.2,7915.6 16326.3,7925.63 16296.2,7830.37 16451.3,7895.54 16436.3,7815.34 16321.3,7730.12 16386.3,7679.99 16271.2,7594.78 16486.3,7659.94 16466.3,7790.27 16486.3,7815.34 "/>
   <polyline id="_140452744" class="fil0 str0" points="15315.9,9559.85 15330.9,9479.65 15260.9,9394.42 15185.9,9399.44 15175.9,9615 15110.8,9620.02 15030.8,9549.83 14995.8,9700.22 15110.8,9710.24 15295.9,9765.39 15325.9,9715.26 "/>
   <polyline id="_141297328" class="fil0 str0" points="18306.9,9750.34 18487,9755.36 18437,9685.17 18542,9650.09 18487,9519.75 18527,9484.66 "/>
   <polyline id="_141297800" class="fil0 str0" points="13415.3,11545 13460.3,11575.1 13470.3,11635.2 13600.3,11660.3 "/>
   <polyline id="_141298016" class="fil0 str0" points="11774.7,12667.9 11839.7,12703 11924.8,12943.6 11969.8,12983.7 12019.8,12943.6 12084.8,12943.6 12089.8,12958.6 "/>
   <polyline id="_141298904" class="fil0 str0" points="10564.3,13099 10344.2,13169.2 10274.2,13144.1 10359.2,13269.5 9999.12,13334.6 10089.2,13384.8 9789.05,13404.8 9598.99,13595.3 9533.97,13555.2 9533.97,13685.5 9408.93,13670.5 9253.88,13941.2 9153.84,13981.3 9123.83,14151.7 9313.9,14257 9193.86,14658 9423.93,14713.2 9088.82,14873.6 8968.77,15149.3 "/>
   <polyline id="_141299384" class="fil0 str0" points="9739.04,15921.3 9964.11,15906.3 9949.11,15811 10114.2,15770.9 10069.1,15194.4 10444.3,14998.9 10414.3,15139.3 10994.5,15174.4 11619.7,14898.7 11824.7,14648 11984.8,14933.8 12094.8,14793.4 12179.9,14918.7 12229.9,14683.1 12374.9,14733.2 12364.9,14487.6 12560,14532.7 "/>
   <polyline id="_141299808" class="fil0 str0" points="9669.01,12086.4 9613.99,11875.8 9338.9,11941 9438.93,12016.2 9413.92,12051.3 9318.89,12011.2 9268.88,12116.5 9403.93,12136.5 "/>
   <line id="_141300744" class="fil0 str0" x1="10389.3" y1="11850.8" x2="10499.3" y2= "11971.1" />
   <polyline id="_141301224" class="fil0 str0" points="10594.3,12096.4 10584.3,12196.7 10489.3,12226.8 10584.3,12377.1 10644.3,12296.9 10774.4,12352.1 10599.3,12432.3 10614.3,12497.5 10919.4,12517.5 10999.5,12437.3 10994.5,12627.8 10834.4,12753.1 "/>
   <polyline id="_141302096" class="fil0 str0" points="10359.2,11815.7 10479.3,11690.4 10449.3,11605.1 10629.3,11524.9 10829.4,11575.1 10894.4,11409.6 10949.4,11474.8 10974.5,11439.7 "/>
   <polyline id="_141303208" class="fil0 str0" points="6462.93,8802.89 6492.95,8752.77 6482.94,8692.61 6542.96,8612.4 6633,8657.52 6663,8767.81 6753.03,8782.85 6753.03,9063.57 6522.95,9058.56 "/>
   <polyline id="_141303768" class="fil0 str0" points="10674.4,9294.17 10629.3,9269.1 10609.3,9183.88 10679.4,9068.59 10839.4,9163.83 10894.4,8988.37 10814.4,8948.27 10824.4,9083.62 10779.4,9088.63 10784.4,8993.39 10624.3,9008.43 10579.3,8913.18 10654.3,8898.15 10549.3,8817.94 10494.3,8983.36 10409.3,8762.79 10519.3,8732.71 "/>
   <polyline id="_141338152" class="fil0 str0" points="10574.3,8722.68 10694.4,8722.68 10699.4,8787.85 10879.4,8707.65 10999.5,8777.82 11059.5,8752.77 "/>
   <polyline id="_141339752" class="fil0 str0" points="13045.1,3434 13180.2,3544.29 13160.2,3659.58 13220.2,3679.64 13290.2,3875.15 13270.2,4025.53 13355.3,4145.84 13325.2,4221.04 13480.3,4261.14 13625.3,4506.78 13455.3,4652.16 13355.3,4852.67 13455.3,5048.18 13245.2,5364 13260.2,5529.43 13120.2,5659.76 13240.2,5970.57 13020.1,6095.9 13260.2,6120.96 13310.2,6421.73 13225.2,6466.85 "/>
   <polyline id="_141340176" class="fil0 str0" points="7823.39,7439.37 7908.42,7414.3 7933.43,7494.51 8063.47,7153.63 7878.42,7003.24 8003.45,6892.95 7948.44,6852.85 8018.46,6767.63 7988.45,6627.27 8268.54,6521.99 8303.56,6451.82 8563.64,6421.73 8578.64,6171.08 8693.68,6025.71 8663.68,5875.32 8843.74,5885.35 8843.74,5734.96 9073.81,5684.82 9308.89,5785.09 9328.9,5669.79 9098.83,5499.35 9363.91,5494.34 9258.87,5243.69 9388.92,5228.65 "/>
   <line id="_141341088" class="fil0 str0" x1="4927.41" y1="5669.79" x2="4727.34" y2= "5479.3" />
   <polyline id="_141342232" class="fil0 str0" points="1321.21,6301.42 1366.21,6376.62 1371.22,6451.82 1551.28,6677.4 1636.3,6627.27 1626.3,6597.19 1726.34,6567.11 1886.4,6697.44 1771.36,6812.75 1896.39,6857.87 2001.43,6837.81 2021.44,6867.89 1926.41,7053.36 1966.41,7113.53 2291.53,7063.39 2451.59,7314.04 2571.62,7183.7 2711.67,7233.83 2646.64,7329.08 2686.67,7419.31 2856.72,7329.08 "/>
   <polyline id="_141342720" class="fil0 str0" points="956.074,10321.8 1266.19,10336.9 1221.17,10527.4 1356.21,10587.5 1431.24,10537.4 1606.3,10567.5 1691.33,10377 1911.4,10331.9 1991.43,10246.6 2121.48,10246.6 2186.49,10036.1 2451.59,10071.2 "/>
   <polyline id="_141343424" class="fil0 str0" points="10374.3,18568.2 10474.3,18508 10444.3,18467.9 10484.3,18362.6 10579.3,18307.5 10484.3,18192.2 10494.3,18091.9 10179.2,18122 10159.2,18046.8 "/>
   <polyline id="_141343608" class="fil0 str0" points="12740,17194.6 12955.1,17279.8 12920.1,17435.2 13155.2,17465.3 13125.2,17680.9 13290.2,17731 13175.2,17891.4 13320.2,18187.2 13745.4,18367.6 13785.4,18583.2 "/>
   <polyline id="_141345416" class="fil0 str0" points="16996.5,20267.6 17171.5,20443 17436.6,20347.8 17521.7,20473.1 17756.7,20397.9 18061.8,20633.5 18086.9,20894.2 18392,20809 "/>
   <polyline id="_141346568" class="fil0 str0" points="20397.6,19811.4 20322.6,19881.6 20182.6,19826.4 20307.6,19796.3 20447.7,19505.6 20237.6,19520.6 20207.6,19440.4 20327.6,19375.2 20287.6,19064.4 20182.6,19114.6 20017.5,18964.2 19937.5,18763.7 19637.4,18868.9 19457.3,18638.3 18862.1,18608.3 18717.1,18347.6 18502,18452.9 18582,18182.2 18281.9,18222.3 18251.9,18122 "/>
   <polyline id="_141347944" class="fil0 str0" points="21007.8,12582.7 21087.9,12627.8 21037.8,12818.3 21122.9,12908.5 22198.2,12923.6 22108.2,12983.7 22148.2,13194.3 22288.3,13299.5 22283.3,13565.2 22098.2,13570.2 22103.2,13725.6 21913.1,13745.7 21948.1,13986.3 21813.1,14011.4 21868.1,14131.7 21658.1,14322.2 21558,14327.2 21558,14668.1 21633,14763.3 21513,14878.6 21603,15039 21918.1,15024 21933.1,15184.4 22083.2,15244.6 22168.2,15189.4 22468.3,15169.4 22618.4,15585.4 22718.4,15640.6 22703.4,15760.9 22943.5,15941.4 22808.4,16111.8 22683.4,16372.5 22768.4,16583 22588.4,16718.4 22488.3,16698.3 22363.3,17019.2 "/>
   <polyline id="_140525648" class="fil0 str0" points="16536.3,15299.7 16501.3,15440.1 16346.3,15400 16321.3,15575.4 16416.3,15600.5 16536.3,15786 16521.3,15906.3 16371.3,15861.2 16181.2,16091.7 16291.2,16192 16341.3,16076.7 16416.3,16166.9 16281.2,16352.4 16381.3,16337.4 16406.3,16482.8 16496.3,16432.6 16471.3,16658.2 16401.3,16618.1 16296.2,16803.6 16371.3,16863.7 16311.2,17094.4 "/>
   <polyline id="_140528128" class="fil0 str0" points="18086.9,17540.5 18026.8,17109.4 18166.9,17114.4 18482,17480.3 18987.2,17460.3 19012.2,17254.8 18692.1,16898.8 "/>
   <polyline id="_140528864" class="fil0 str0" points="18747.1,16683.3 19067.2,16954 19507.3,17059.3 19612.4,16818.6 19497.3,16698.3 19867.4,16222.1 20382.6,16432.6 20847.8,16061.7 "/>
   <polyline id="_140529288" class="fil0 str0" points="10129.2,2296.06 10404.3,2135.65 10439.3,1985.26 10529.3,1970.22 10504.3,1859.94 "/>
   <line id="_140526656" class="fil0 str0" x1="11399.6" y1="8542.23" x2="11474.6" y2= "8542.23" />
   <line id="_140527192" class="fil0 str0" x1="11589.7" y1="8577.31" x2="11584.7" y2= "8632.45" />
   <polyline id="_140527688" class="fil0 str0" points="10984.5,10251.6 10969.5,10241.6 10924.4,10236.6 10934.4,10181.5 11014.5,10136.3 11109.5,10136.3 "/>
   <line id="_140596336" class="fil0 str0" x1="11159.5" y1="10126.3" x2="11194.5" y2= "10131.3" />
   <polyline id="_140596920" class="fil0 str0" points="5987.78,7855.44 5917.75,7434.35 6042.79,7033.32 5602.65,6797.71 5627.65,6617.24 5337.55,6627.27 5167.5,6316.46 5377.57,6281.38 5192.51,6065.81 5277.53,5925.45 5057.47,5925.45 4927.41,5669.79 "/>
   <polyline id="_140598192" class="fil0 str0" points="4927.41,5669.79 4732.35,5699.87 4717.35,6256.31 4442.25,6191.14 4372.23,6411.71 4447.26,6602.2 4007.11,6677.4 3982.1,6792.7 3421.91,6737.55 2826.71,6993.22 2856.72,7329.08 "/>
   <polyline id="_140598872" class="fil0 str0" points="2856.72,7329.08 2921.74,7464.44 2761.69,7574.72 2606.64,8076.01 2931.75,8076.01 2786.69,8231.42 2861.73,8547.23 3056.78,8612.4 3021.77,8873.08 2861.73,9013.44 2941.74,9218.97 2551.61,9579.9 2666.65,9880.68 2451.59,10071.2 "/>
   <polyline id="_141349696" class="fil0 str0" points="2451.59,10071.2 2381.56,10231.6 2571.62,10617.6 2326.54,10798.1 2576.62,10763 2586.63,10868.2 3076.79,10828.1 3146.82,10998.6 3271.86,11033.7 3316.87,10858.2 3501.94,10788 "/>
   <polyline id="_141350896" class="fil0 str0" points="5032.45,13449.9 5077.46,13354.7 5007.44,13269.5 5382.57,13063.9 5307.55,12863.4 5552.63,12888.5 5632.66,12778.2 5267.53,12146.6 5152.5,12236.8 4962.42,11966.1 4822.39,12091.4 4757.36,11745.5 4602.31,11720.4 4672.33,11580.1 4502.27,11499.9 4547.29,11324.4 4347.22,11364.5 4432.25,11189.1 4132.15,10953.5 3742.02,11113.9 3596.97,11013.6 3611.98,10783 3501.94,10788 "/>
   <polyline id="_141351680" class="fil0 str0" points="3501.94,10788 3616.98,10697.8 3566.96,10612.6 3311.87,10482.2 3591.97,10311.8 3732.02,10602.5 3872.07,10181.5 4197.17,10101.3 4232.18,9995.98 4752.36,9935.83 4807.37,9609.99 4897.41,9940.84 4982.43,9920.78 4972.43,9670.14 5327.56,9414.48 5097.47,9339.28 5272.53,9234.01 5177.5,9083.62 5537.62,8858.04 5522.62,8757.78 5337.55,8682.58 5412.58,8517.16 5852.73,8577.31 5827.72,8472.04 "/>
   <polyline id="_141352384" class="fil0 str0" points="5827.72,8472.04 5912.74,8482.07 5947.76,8858.04 6092.81,8772.82 6052.79,8607.4 6442.92,8662.54 6407.91,8802.89 6462.93,8802.89 "/>
   <line id="_141353456" class="fil0 str0" x1="6462.93" y1="8802.89" x2="6522.95" y2= "9058.56" />
   <polyline id="_141354368" class="fil0 str0" points="6522.95,9058.56 6507.95,9218.97 6658,9208.94 6958.1,9695.2 6617.98,9805.49 6748.03,9910.77 6617.98,10061.2 6487.94,10056.1 6502.95,10336.9 6668.01,10256.7 6688.01,10407 6798.05,10477.2 6818.05,10387 6908.08,10427.1 "/>
   <polyline id="_141356856" class="fil0 str0" points="3767.03,15064.1 3641.98,14778.4 3737.01,14768.3 3757.02,14432.5 4132.15,14352.3 4242.18,14467.6 4542.29,14352.3 4622.32,14006.4 4497.27,13966.3 4412.25,14111.6 4462.26,13815.9 4817.38,13480 5032.45,13449.9 "/>
   <polyline id="_141355728" class="fil0 str0" points="5032.45,13449.9 5112.48,13620.4 5467.59,13640.4 5567.63,13820.9 5852.73,13620.4 5912.74,13800.8 6262.87,13670.5 6432.93,13710.6 6417.91,13419.8 6703.02,13319.6 6547.96,13119.1 6552.97,12908.5 "/>
   <polyline id="_141355912" class="fil0 str0" points="6552.97,12908.5 6808.06,12667.9 7153.17,13028.8 7168.17,12768.2 7383.25,12783.2 7423.26,12928.6 7488.27,12803.2 7728.36,12928.6 7728.36,12833.3 8168.5,12758.1 8373.58,12587.7 8368.57,12407.2 8683.68,12382.2 8788.72,12236.8 9258.87,12176.6 9248.87,12291.9 9403.93,12136.5 "/>
   <line id="_141357224" class="fil0 str0" x1="9403.93" y1="12136.5" x2="9669.01" y2= "12086.4" />
   <polyline id="_141360728" class="fil0 str0" points="9669.01,12086.4 9829.07,11931 9914.1,11991.1 9929.1,11895.9 10139.2,11941 10199.2,11805.7 10289.2,11765.6 10324.2,11795.6 "/>
   <polyline id="_141358496" class="fil0 str0" points="5827.72,8472.04 5787.71,8351.73 5722.68,8381.8 5717.69,8251.46 5602.65,8171.26 5572.63,7850.43 5747.69,7770.23 5872.74,7960.71 5987.78,7855.44 "/>
   <polyline id="_141358760" class="fil0 str0" points="5987.78,7855.44 6517.95,7840.4 6597.98,7725.1 6738.03,7815.34 7168.17,7685 7353.23,7750.17 7398.25,7674.98 7533.29,7695.03 7478.28,7479.47 7723.35,7569.71 7763.37,7479.47 7683.34,7424.33 7753.37,7374.2 7823.39,7439.37 "/>
   <polyline id="_141359784" class="fil0 str0" points="7823.39,7439.37 7858.4,7524.59 8043.47,7664.95 8203.52,7639.89 8453.61,8035.91 8453.61,8161.24 9208.86,8306.62 9293.89,8602.37 9583.99,8522.17 9558.98,8893.13 9689.02,8923.21 9754.04,9123.73 9829.07,9103.67 9774.05,9213.96 9879.09,9163.83 9964.11,9289.15 "/>
   <polyline id="_141360416" class="fil0 str0" points="9964.11,9289.15 9874.09,9334.27 9959.11,9439.55 10104.2,9484.66 10134.2,9645.07 9969.12,9860.63 10064.2,9970.92 10024.1,10141.4 9914.1,10156.4 9894.09,10336.9 9654.01,10457.2 9729.03,10537.4 9709.02,10557.4 "/>
   <polyline id="_141361856" class="fil0 str0" points="6552.97,12908.5 6392.91,12713 6187.84,12647.8 6277.87,12547.6 6222.86,12417.2 6372.91,12276.9 6783.04,12206.7 7008.12,11961.1 7268.21,11860.8 7098.15,11715.4 7113.16,11444.7 7233.2,11349.5 6953.1,10958.5 7018.12,10828.1 6973.11,10632.6 7048.13,10582.5 6908.08,10427.1 "/>
   <polyline id="_141365112" class="fil0 str0" points="6908.08,10427.1 7028.12,10281.7 7303.22,10407 7308.22,10216.6 7423.26,10246.6 7648.33,9920.78 8078.48,9960.89 8173.51,10071.2 8553.64,10036.1 8673.67,10211.5 8908.75,10141.4 9068.81,10412.1 9403.93,10562.4 9709.02,10557.4 "/>
   <polyline id="_141363120" class="fil0 str0" points="9709.02,10557.4 9709.02,10697.8 9889.09,10828.1 9969.12,10707.8 10104.2,10717.9 10209.2,10813.1 10394.3,10617.6 10659.3,10717.9 10659.3,10532.4 10854.4,10477.2 "/>
   <polyline id="_141364160" class="fil0 str0" points="11379.6,8071 11289.6,7985.78 11254.5,8035.91 11144.5,7975.76 11164.5,8076.01 10844.4,8000.82 10799.4,8045.94 10609.3,7795.29 10619.3,7629.86 10789.4,7544.64 10644.3,7369.18 10544.3,7384.23 10479.3,7038.33 10684.4,6717.5 10609.3,6607.22 10519.3,6562.1 10394.3,6316.46 9944.1,6346.54 9929.1,6211.19 10064.2,6070.83 9994.13,5925.45 9764.04,5840.23 9759.05,5734.96 9388.92,5313.87 9388.92,5228.65 "/>
   <polyline id="_141364880" class="fil0 str0" points="9388.92,5228.65 9368.92,5083.28 9428.94,5023.12 9348.91,5013.09 9343.9,4937.9 9498.96,4907.81 9388.92,4822.6 9423.93,4662.19 9138.84,4386.47 9343.9,4185.95 9438.93,3990.45 9694.02,3985.43 9834.07,3870.13 9774.05,3774.88 9593.99,3719.74 "/>
   <polyline id="_141365688" class="fil0 str0" points="9854.08,16708.3 10359.2,16828.7 10414.3,16964 10554.3,16688.3 10819.4,16848.7 11044.5,16693.3 11284.6,16793.6 11369.6,16618.1 11469.6,16718.4 11769.7,16818.6 11814.7,17199.6 12049.8,17044.2 12029.8,17279.8 12319.9,17059.3 12540,17064.3 12645,17174.6 12740,17194.6 "/>
   <polyline id="_141369192" class="fil0 str0" points="12740,17194.6 12715,16999.1 12970.1,16944 12530,16628.1 12905.1,16603.1 12810.1,16297.3 12800.1,16106.8 "/>
   <polyline id="_141366256" class="fil0 str0" points="9964.11,9289.15 10119.2,9213.96 10354.2,9374.38 10484.3,9389.41 10409.3,9449.57 10524.3,9469.62 10524.3,9399.44 10694.4,9429.52 10629.3,9374.38 10674.4,9294.17 "/>
   <polyline id="_141367656" class="fil0 str0" points="10674.4,9294.17 10734.4,9354.32 10764.4,9289.15 10829.4,9464.61 10954.4,9569.88 10999.5,9449.57 11059.5,9489.68 11119.5,9469.62 "/>
   <polyline id="_141368712" class="fil0 str0" points="10129.2,2296.06 10434.3,2516.64 11179.5,3464.09 11314.6,3895.19 12029.8,3639.54 12059.8,3759.85 12244.9,3905.22 12520,3985.43 12775.1,3594.41 13045.1,3434 "/>
   <polyline id="_141369752" class="fil0 str0" points="13045.1,3434 13155.2,3233.49 12960.1,2937.73 12985.1,2742.22 13235.2,2601.85 13465.3,2641.96 13675.4,2426.4 13820.4,2411.36 14130.5,2250.94 14330.6,2481.54 14505.6,2316.11 14395.6,2065.46 14555.7,1910.06 14575.7,1824.84 "/>
   <line id="_141371968" class="fil0 str0" x1="10559.3" y1="13079" x2="10564.3" y2= "13099" />
   <polyline id="_141372568" class="fil0 str0" points="10564.3,13099 10614.3,13309.6 10729.4,13259.4 10784.4,13299.5 10784.4,13144.1 10854.4,13073.9 "/>
   <polyline id="_141373256" class="fil0 str0" points="10854.4,13073.9 10894.4,12893.5 10844.4,12863.4 10879.4,12773.2 10834.4,12753.1 "/>
   <polyline id="_141370824" class="fil0 str0" points="10834.4,12753.1 10794.4,12833.3 10709.4,12803.2 10769.4,12873.4 10739.4,12903.5 10689.4,12848.4 10599.3,12933.6 10639.3,13038.9 10559.3,13079 "/>
   <polyline id="_141371008" class="fil0 str0" points="10854.4,13073.9 11039.5,13094 10939.4,13154.2 10984.5,13184.2 10939.4,13274.5 11059.5,13239.4 11214.5,13299.5 11229.5,13134.1 11309.6,13184.2 11414.6,13139.1 11394.6,13073.9 11449.6,13053.9 11639.7,12738.1 11679.7,12738.1 11739.7,12667.9 11774.7,12667.9 "/>
   <line id="_141373520" class="fil0 str0" x1="11774.7" y1="12667.9" x2="11854.7" y2= "12662.9" />
   <polyline id="_141374192" class="fil0 str0" points="11479.6,8457 11319.6,8411.89 11374.6,8341.7 11309.6,8311.62 11299.6,8191.31 11389.6,8136.17 11379.6,8071 "/>
   <polyline id="_141374992" class="fil0 str0" points="11379.6,8071 11454.6,8116.12 11694.7,7820.36 11739.7,7830.37 "/>
   <polyline id="_141376136" class="fil0 str0" points="12745.1,7283.97 12565,7294 12274.9,7043.35 12044.8,7013.26 11784.7,7108.52 11819.7,7213.79 11759.7,7228.83 11849.8,7349.14 11804.7,7509.55 11879.8,7564.69 11759.7,7715.08 11739.7,7830.37 "/>
   <polyline id="_141376320" class="fil0 str0" points="11739.7,7830.37 11744.7,7970.74 11794.7,7985.78 11799.7,7945.67 11919.8,7935.65 11909.8,7970.74 11774.7,8060.98 11754.7,8156.22 11679.7,8191.31 11774.7,8271.52 11804.7,8351.73 11784.7,8401.86 11479.6,8457 "/>
   <line id="_141377320" class="fil0 str0" x1="11479.6" y1="8457" x2="11474.6" y2= "8542.23" />
   <polyline id="_141378000" class="fil0 str0" points="11474.6,8542.23 11574.7,8512.14 11589.7,8577.31 "/>
   <polyline id="_141378184" class="fil0 str0" points="11589.7,8577.31 11754.7,8472.04 11904.8,8602.37 11884.8,8677.57 11939.8,8752.77 11874.8,8837.99 11909.8,8842.99 11934.8,8943.26 "/>
   <line id="_141379520" class="fil0 str0" x1="12134.8" y1="12983.7" x2="12089.8" y2= "12958.6" />
   <polyline id="_141380456" class="fil0 str0" points="12089.8,12958.6 12044.8,13089 11949.8,13094 12004.8,13204.3 11894.8,13284.5 11939.8,13394.8 11914.8,13429.9 11724.7,13384.8 11609.7,13600.3 11669.7,13630.4 11779.7,13590.3 11979.8,13740.7 11944.8,13820.9 12094.8,13785.8 12084.8,13695.6 12229.9,13730.6 12284.9,13670.5 12184.9,13449.9 12304.9,13374.7 12209.9,13309.6 12279.9,13244.4 12174.9,13204.3 12129.8,13089 12139.8,12998.7 "/>
   <polyline id="_141380640" class="fil0 str0" points="13935.4,12382.2 13870.4,12542.6 13900.4,12748.1 13945.5,12698 14045.5,12873.4 13960.5,12948.6 13890.4,12838.3 13800.4,12923.6 13750.4,12863.4 "/>
   <line id="_141381800" class="fil0 str0" x1="12139.8" y1="12998.7" x2="12134.8" y2= "12983.7" />
   <polyline id="_141385680" class="fil0 str0" points="12134.8,12983.7 12134.8,12968.7 12154.9,12888.5 "/>
   <polyline id="_141383248" class="fil0 str0" points="12830.1,12873.4 12685,13164.2 12535,13239.4 12550,13324.6 12394.9,13570.2 12485,13645.4 12324.9,13680.5 12289.9,13830.9 12369.9,13931.2 12695,14001.4 12710,14347.2 12785.1,14517.7 12725,14567.8 12640,14457.5 12560,14532.7 "/>
   <polyline id="_141384760" class="fil0 str0" points="12560,14532.7 12625,14582.9 12465,14818.5 12505,14898.7 12600,14853.5 12715,15059.1 12550,15099.2 12695,15505.2 12444.9,15585.4 12575,15650.6 12359.9,15921.3 12439.9,16131.9 12490,16086.7 12800.1,16106.8 "/>
   <polyline id="_141385208" class="fil0 str0" points="12800.1,16106.8 12790.1,15961.4 12845.1,15841.1 13130.2,15956.4 13120.2,16021.6 13400.3,16166.9 13450.3,16056.7 13385.3,15906.3 13515.3,15886.2 13530.3,15791 13655.4,15931.3 13795.4,15896.3 13935.4,15796 13880.4,15590.5 13795.4,15630.6 13755.4,15445.1 13825.4,15339.8 13745.4,15289.7 13800.4,15129.3 13975.5,15209.5 13900.4,15279.7 14015.5,15455.1 14335.6,15204.5 14475.6,15229.5 14665.7,15049.1 14775.7,15019 14795.7,14903.7 "/>
   <polyline id="_141386984" class="fil0 str0" points="14795.7,14903.7 14770.7,14768.3 14835.8,14653 14745.7,14643 14760.7,14537.7 14635.7,14477.6 14590.7,14592.9 14395.6,14633 14410.6,14542.7 14305.6,14517.7 14200.5,14392.4 14255.6,14337.2 14295.6,14387.3 14345.6,14287.1 14425.6,14307.1 14530.7,14166.8 14470.6,14021.4 14335.6,13901.1 14270.6,13956.2 14160.5,13650.4 14080.5,13600.3 14035.5,13660.5 13875.4,13525.1 14060.5,13409.8 13950.5,13048.9 13795.4,13104 13685.4,12833.3 13750.4,12863.4 "/>
   <polyline id="_141387608" class="fil0 str0" points="15180.9,6948.09 14965.8,6948.09 14925.8,6902.98 14440.6,6953.11 14365.6,6877.91 14320.6,6717.5 14200.5,6782.67 13700.4,6496.93 13315.2,6562.1 13230.2,6597.19 13225.2,6466.85 "/>
   <polyline id="_141389720" class="fil0 str0" points="13225.2,6466.85 13130.2,6441.79 12955.1,6662.36 12725,6877.91 12810.1,7043.35 12745.1,7283.97 "/>
   <polyline id="_141388776" class="fil0 str0" points="12745.1,7283.97 12790.1,7304.01 12785.1,7399.27 12695,7419.31 12630,7730.12 12745.1,7795.29 12720,7830.37 13285.2,8316.63 13235.2,8351.73 13235.2,8356.74 "/>
   <polyline id="_141389376" class="fil0 str0" points="14555.7,10036.1 14480.6,9900.74 14290.6,9750.34 14165.5,9830.56 14080.5,9765.39 14105.5,9740.32 14095.5,9660.12 13940.5,9655.1 13805.4,9539.8 "/>
   <polyline id="_141389992" class="fil0 str0" points="13805.4,9539.8 13770.4,9509.72 13440.3,9630.03 13355.3,9635.05 13265.2,9559.85 "/>
   <polyline id="_141390176" class="fil0 str0" points="13265.2,9559.85 13130.2,9569.88 13130.2,9705.23 "/>
   <line id="_141390784" class="fil0 str0" x1="13325.2" y1="8958.3" x2="13320.2" y2= "8968.32" />
   <line id="_141392040" class="fil0 str0" x1="13320.2" y1="8968.32" x2="13320.2" y2= "8983.36" />
   <polyline id="_141392512" class="fil0 str0" points="13220.2,11775.6 13240.2,11795.6 13245.2,11875.8 13330.3,11890.9 13380.3,11830.7 13505.3,11825.7 13595.3,11926 13515.3,11966.1 13595.3,12001.2 "/>
   <line id="_141393568" class="fil0 str0" x1="13595.3" y1="12001.2" x2="13620.3" y2= "11961.1" />
   <polyline id="_141393664" class="fil0 str0" points="14065.5,8617.41 14095.5,8632.45 14080.5,8782.85 14045.5,8802.89 14020.5,8762.79 13940.5,8757.78 13915.5,8807.91 "/>
   <line id="_141396816" class="fil0 str0" x1="13915.5" y1="8807.91" x2="13845.4" y2= "8832.98" />
   <polyline id="_141397352" class="fil0 str0" points="14580.7,11128.9 14570.7,11199.1 14680.7,11304.4 14640.7,11414.7 14590.7,11409.6 14525.6,11509.9 14460.6,11499.9 14480.6,11590.1 14375.6,11665.3 14385.6,11770.6 14245.6,11795.6 14060.5,11675.3 14015.5,11755.5 14135.5,11835.7 14215.5,11820.7 14200.5,11900.9 14085.5,11976.1 14160.5,12046.3 14160.5,12166.6 14210.5,12176.6 14240.6,12276.9 14125.5,12271.9 "/>
   <polyline id="_141398000" class="fil0 str0" points="14125.5,12271.9 14045.5,12221.7 13935.4,12256.8 13895.4,12211.7 13795.4,11910.9 13620.3,11961.1 "/>
   <polyline id="_141395624" class="fil0 str0" points="13620.3,11961.1 13670.4,11825.7 13595.3,11715.4 13620.3,11680.3 13600.3,11660.3 "/>
   <polyline id="_141396240" class="fil0 str0" points="13600.3,11660.3 13750.4,11670.3 13750.4,11585.1 13695.4,11444.7 13550.3,11324.4 "/>
   <polyline id="_141396560" class="fil0 str0" points="13595.3,12001.2 13595.3,12081.4 13710.4,12236.8 13785.4,12256.8 13830.4,12322 13935.4,12382.2 "/>
   <polyline id="_141428240" class="fil0 str0" points="13935.4,12382.2 14080.5,12427.3 14070.5,12307 14125.5,12271.9 "/>
   <polyline id="_141429128" class="fil0 str0" points="14065.5,8617.41 13975.5,8507.13 14025.5,8497.1 14120.5,8567.28 14220.6,8557.26 14150.5,8346.72 14295.6,8236.43 14220.6,8146.19 14440.6,8156.22 14580.7,8015.86 14690.7,8161.24 14765.7,8086.04 14890.8,8096.07 14955.8,8216.38 15025.8,7990.8 14890.8,7800.3 "/>
   <polyline id="_141429808" class="fil0 str0" points="14890.8,7800.3 15085.8,7755.19 15180.9,7579.73 15436,7344.13 15521,7339.11 15666,7208.77 15711,7078.43 16446.3,6461.83 "/>
   <polyline id="_141430376" class="fil0 str0" points="13995.5,10908.3 14030.5,10903.3 14140.5,10973.5 14195.5,11073.8 14330.6,10993.6 14360.6,11053.7 14580.7,11128.9 "/>
   <polyline id="_141431248" class="fil0 str0" points="14580.7,11128.9 14655.7,11118.9 14655.7,11093.8 14800.7,11013.6 14875.8,11083.8 15020.8,11068.8 "/>
   <polyline id="_141431760" class="fil0 str0" points="16311.2,17094.4 16441.3,17249.7 16746.4,17234.7 17076.5,17375.1 17181.6,17314.9 17286.6,17540.5 17541.7,17585.6 17441.6,17731 17841.8,17710.9 18026.8,17811.2 18086.9,17540.5 "/>
   <polyline id="_141433000" class="fil0 str0" points="18086.9,17540.5 18156.9,17710.9 18041.8,17926.5 18211.9,17936.5 18121.9,18006.7 18251.9,18122 "/>
   <polyline id="_141433992" class="fil0 str0" points="18251.9,18122 18001.8,18147.1 18236.9,18277.4 18231.9,18503 17976.8,18488 18071.8,18909 17861.8,18833.8 17856.8,19109.6 17516.7,18944.1 16901.5,19500.6 "/>
   <polyline id="_141434544" class="fil0 str0" points="16901.5,19500.6 16651.4,19490.5 16756.4,19144.6 16431.3,19139.6 16551.3,19019.3 16361.3,18638.3 16456.3,18488 16096.2,18447.9 15876.1,18528.1 15781.1,18493 "/>
   <polyline id="_141439680" class="fil0 str0" points="16681.4,10572.5 16691.4,10622.6 16911.5,10863.2 16761.4,10943.4 16831.4,11033.7 16681.4,11033.7 16681.4,11354.5 16651.4,11364.5 "/>
   <polyline id="_141442936" class="fil0 str0" points="16651.4,11364.5 16591.3,11289.3 16371.3,11229.2 16276.2,11113.9 16186.2,11189.1 15881.1,11259.2 15826.1,11324.4 15636,11324.4 15636,11249.2 15501,11229.2 15355.9,11314.4 15265.9,11324.4 15270.9,11154 15020.8,11068.8 "/>
   <polyline id="_141440352" class="fil0 str0" points="15020.8,11068.8 15040.8,10988.6 14855.8,10968.5 14770.7,10773 14715.7,10783 14695.7,10727.9 "/>
   <polyline id="_141440920" class="fil0 str0" points="14695.7,10727.9 14775.7,10682.8 14935.8,10758 14980.8,10682.8 14805.7,10587.5 "/>
   <polyline id="_141442080" class="fil0 str0" points="14805.7,10587.5 14800.7,10507.3 14530.7,10432.1 14605.7,10281.7 14555.7,10036.1 "/>
   <polyline id="_141442696" class="fil0 str0" points="14555.7,10036.1 14710.7,9975.94 14890.8,10006 14905.8,9925.8 15005.8,10031.1 15305.9,9985.95 15290.9,9850.61 15365.9,9750.34 15325.9,9715.26 "/>
   <line id="_141445888" class="fil0 str0" x1="15325.9" y1="9715.26" x2="15315.9" y2= "9559.85" />
   <polyline id="_141446880" class="fil0 str0" points="15315.9,9559.85 15471,9574.89 15476,9404.45 15380.9,9173.86 15390.9,9073.6 15260.9,8978.35 15270.9,8928.22 15431,8923.21 15405.9,8717.68 15551,8732.71 15441,8582.33 15576,8482.07 15606,8597.37 15751.1,8517.16 "/>
   <polyline id="_141444552" class="fil0 str0" points="15751.1,8517.16 15806.1,8632.45 15986.1,8632.45 16071.2,8532.2 16221.2,8572.3 16226.2,8421.9 16496.3,8441.96 16516.3,8161.24 16321.3,8111.11 16526.3,7915.6 16586.3,7980.77 16486.3,7815.34 "/>
   <polyline id="_141445384" class="fil0 str0" points="16486.3,7815.34 16561.3,7745.16 16631.4,7805.32 16616.3,7955.7 16716.4,7905.57 16846.4,8010.84 16956.5,7965.73 16891.4,7845.42 16776.4,7840.4 16936.5,7745.16 "/>
   <polyline id="_141447424" class="fil0 str0" points="14890.8,7800.3 14830.7,7800.3 14875.8,7649.92 14830.7,7619.83 14725.7,7679.99 14615.7,7534.61 14690.7,7424.33 14835.8,7519.58 14910.8,7419.31 14730.7,7283.97 14875.8,7198.74 14860.8,7148.62 14925.8,7103.5 14960.8,7128.56 15175.9,6953.11 15180.9,6948.09 "/>
   <line id="_141447848" class="fil0 str0" x1="15180.9" y1="6948.09" x2="16296.2" y2= "5980.6" />
   <polyline id="_141448776" class="fil0 str0" points="14795.7,14903.7 14920.8,14838.5 15155.9,14868.6 15405.9,14808.4 15456,14858.6 15646,14803.4 15636,14983.9 15711,15039 16006.1,14888.6 16236.2,14913.7 16296.2,15139.3 16436.3,15154.3 "/>
   <polyline id="_141449392" class="fil0 str0" points="16436.3,15154.3 16686.4,15003.9 16681.4,14728.2 16816.4,14592.9 16831.4,14412.4 16561.3,14191.8 16696.4,13956.2 16806.4,13941.2 16766.4,13755.7 16416.3,13830.9 16406.3,13635.4 16281.2,13540.1 16296.2,13374.7 16046.2,13264.4 16141.2,13119.1 16151.2,12893.5 16431.3,12953.6 16521.3,12517.5 16776.4,12342 17316.6,12337 "/>
   <polyline id="_141449896" class="fil0 str0" points="17316.6,12337 17346.6,12296.9 17446.6,12372.1 17471.6,12256.8 17161.5,11996.2 17391.6,11895.9 "/>
   <polyline id="_141450544" class="fil0 str0" points="16681.4,10572.5 16891.4,10562.4 16881.4,10512.3 "/>
   <polyline id="_141452384" class="fil0 str0" points="17316.6,12337 17436.6,12452.3 17361.6,12577.7 17476.6,12688 17451.6,12843.4 17891.8,12718 17891.8,12928.6 17761.7,13089 17926.8,13214.3 18166.9,13159.2 18226.9,13620.4 18622,13655.4 18602,13780.8 18652,13785.8 "/>
   <polyline id="_141453088" class="fil0 str0" points="18652,13785.8 18772.1,14036.4 18732.1,14297.1 18912.1,14337.2 18802.1,14522.7 18592,14592.9 18827.1,14648 18692.1,14783.4 18737.1,14943.8 "/>
   <polyline id="_141453784" class="fil0 str0" points="18737.1,14943.8 18622,15079.1 18226.9,14958.8 18091.9,15159.3 17581.7,15194.4 17516.7,15089.2 17186.5,15324.8 17001.5,15184.4 16891.4,15234.5 16956.5,15349.8 16631.4,15224.5 16646.4,15294.7 16536.3,15299.7 "/>
   <polyline id="_141454672" class="fil0 str0" points="16536.3,15299.7 16521.3,15204.5 16436.3,15154.3 "/>
   <polyline id="_141455496" class="fil0 str0" points="16626.4,20518.2 16876.4,20448 16906.5,20302.7 16996.5,20267.6 "/>
   <polyline id="_141456000" class="fil0 str0" points="16996.5,20267.6 17176.5,19916.6 16961.5,19786.3 16901.5,19500.6 "/>
   <polyline id="_141458696" class="fil0 str0" points="18417,9198.91 18577,9434.52 18527,9484.66 "/>
   <polyline id="_141459360" class="fil0 str0" points="18527,9484.66 18371.9,9279.13 18151.9,9218.97 17986.8,9223.98 18001.8,9609.99 17956.8,9620.02 17971.8,9755.36 18306.9,9750.34 "/>
   <polyline id="_141457840" class="fil0 str0" points="18306.9,9750.34 18301.9,9780.43 18176.9,9790.45 18186.9,9905.75 17991.8,9975.94 18116.9,10226.6 18201.9,10246.6 18201.9,10361.9 18296.9,10361.9 18311.9,10677.7 18191.9,10697.8 18176.9,10838.2 18392,10948.4 18306.9,11164 18211.9,11184.1 18462,11414.7 18467,11565 18407,11605.1 18281.9,11600.1 18331.9,11645.2 18151.9,11910.9 17836.8,11870.8 17746.7,11910.9 17391.6,11895.9 "/>
   <polyline id="_141458200" class="fil0 str0" points="17391.6,11895.9 17341.6,11835.7 17256.6,11850.8 17121.5,11910.9 17061.5,11575.1 16661.4,11424.7 16651.4,11364.5 "/>
   <polyline id="_141623552" class="fil0 str0" points="17941.8,16928.9 17671.7,16267.2 17741.7,16207 17716.7,16081.7 17891.8,16116.8 18026.8,16322.3 18161.9,16317.3 18457,16618.1 18752.1,16532.9 18747.1,16683.3 "/>
   <line id="_141624320" class="fil0 str0" x1="18747.1" y1="16683.3" x2="18692.1" y2= "16898.8" />
   <polyline id="_141625376" class="fil0 str0" points="18692.1,16898.8 18512,16823.6 18472,16994.1 18296.9,16908.9 18221.9,16688.3 17941.8,16928.9 "/>
   <polyline id="_141626448" class="fil0 str0" points="18652,13785.8 18822.1,13795.8 19052.2,13660.5 19047.2,13294.5 19372.3,13319.6 19272.3,13114 19357.3,13043.9 19402.3,12833.3 19867.4,12853.4 19927.5,12948.6 20072.5,12853.4 20102.5,12597.7 20532.7,12642.8 21007.8,12582.7 "/>
   <polyline id="_141627168" class="fil0 str0" points="21007.8,12582.7 20907.8,12211.7 21157.9,12241.8 21453,11996.2 21312.9,11951 21498,11519.9 21833.1,11028.7 21653,10697.8 "/>
   <polyline id="_141628424" class="fil0 str0" points="18737.1,14943.8 18872.1,15064.1 19117.2,15014 18852.1,15224.5 19047.2,15665.6 19717.4,15430 19832.4,15811 20057.5,15866.2 20027.5,16006.5 20247.6,16061.7 20342.6,15931.3 20567.7,16036.6 20847.8,16061.7 "/>
   <polyline id="_141631440" class="fil0 str0" points="20847.8,16061.7 21488,16076.7 21698.1,16512.8 21693.1,16663.2 21848.1,16668.2 21843.1,16959 22158.2,17224.7 "/>
   <polyline id="_141629584" class="fil0 str0" points="9103.82,10788 8698.68,10803.1 8823.73,10597.5 8608.66,10717.9 8533.63,10592.5 8248.53,10622.6 8348.57,10928.4 8138.5,10928.4 8218.53,11033.7 8158.51,11249.2 8483.61,11234.2 8483.61,11018.6 8628.67,11264.3 8748.71,11199.1 8648.67,10953.5 8888.76,10928.4 8843.74,11164 9103.82,10788 "/>
   <polyline id="_141631056" class="fil0 str0" points="11724.7,18056.8 11529.6,18107 11529.6,17941.5 11634.7,17796.2 11464.6,17761.1 11364.6,17826.2 11374.6,17680.9 11214.5,17635.7 11234.5,17796.2 10994.5,17941.5 11019.5,18066.9 11144.5,18127 11064.5,18192.2 11364.6,18232.3 11384.6,18337.6 11494.6,18137 11739.7,18222.3 11724.7,18056.8 "/>
   <polyline id="_141631680" class="fil0 str0" points="12550,18889 12510,18643.3 12394.9,18603.2 11959.8,18758.7 12124.8,18828.8 12314.9,18984.2 12550,18889 "/>
   <polyline id="_141635184" class="fil0 str0" points="11804.7,13886 11779.7,13991.3 11689.7,13936.2 11674.7,13991.3 11724.7,14011.4 11704.7,14121.7 11809.7,14176.8 11754.7,14211.9 11904.8,14252 11929.8,14116.6 12039.8,14161.8 12184.9,14081.6 12239.9,14101.6 12254.9,14066.5 12139.8,13936.2 12004.8,13845.9 11929.8,13876 11899.8,13996.3 11804.7,13886 "/>
   <polyline id="_141632536" class="fil0 str0" points="8383.59,14252 8158.51,14307.1 8153.5,14467.6 8408.59,14457.5 8383.59,14252 "/>
   <polyline id="_141633176" class="fil0 str0" points="19052.2,10236.6 19042.2,10336.9 19117.2,10387 19497.3,10276.7 19362.3,10246.6 19507.3,9880.68 19447.3,9905.75 19342.3,9755.36 19272.3,9850.61 19027.2,9860.63 19007.2,10006 18902.1,10086.2 18817.1,10261.7 18852.1,10377 19052.2,10236.6 "/>
   <polyline id="_141634384" class="fil0 str0" points="23593.7,11540 23778.8,11560 23823.8,11264.3 23718.7,11264.3 23663.7,11169 23593.7,11244.2 23573.7,11184.1 23428.6,11189.1 23428.6,11264.3 23348.6,11274.3 23343.6,11389.6 23178.6,11494.9 23118.5,11615.2 23143.6,11685.3 23218.6,11685.3 23218.6,11645.2 23513.7,11670.3 23593.7,11540 "/>
   <polyline id="_141634968" class="fil0 str0" points="13265.2,9559.85 13260.2,9514.74 13440.3,9499.69 13545.3,9339.28 13440.3,9269.1 13210.2,9314.22 13195.2,9218.97 13260.2,9038.5 13320.2,8983.36 "/>
   <polyline id="_141639424" class="fil0 str0" points="13320.2,8983.36 13375.3,9088.63 13420.3,9048.53 13455.3,9058.56 13455.3,9103.67 13545.3,9083.62 13590.3,9008.43 13480.3,8918.19 13375.3,9033.49 13325.2,8958.3 "/>
   <polyline id="_141636696" class="fil0 str0" points="13325.2,8958.3 13325.2,8943.26 13405.3,8943.26 13380.3,8883.1 13415.3,8853.02 13490.3,8883.1 13540.3,8848.01 13805.4,8873.08 13845.4,8832.98 "/>
   <polyline id="_141637800" class="fil0 str0" points="13845.4,8832.98 13735.4,8732.71 13730.4,8782.85 13670.4,8772.82 13620.3,8722.68 13615.3,8677.57 13700.4,8512.14 13830.4,8512.14 13975.5,8642.48 14065.5,8617.41 "/>
   <polyline id="_141638792" class="fil0 str0" points="14120.5,18683.5 14385.6,18663.4 14565.7,18698.5 14750.7,18818.8 15015.8,18603.2 15095.8,18457.9 15310.9,18382.7 15536,18498 15646,18402.7 15781.1,18493 "/>
   <polyline id="_141640192" class="fil0 str0" points="15781.1,18493 15946.1,18272.4 16186.2,18202.2 16196.2,17996.7 15796.1,17841.3 15741.1,17480.3 15851.1,17465.3 15901.1,17219.7 16141.2,17234.7 16171.2,17134.5 16311.2,17094.4 "/>
   <polyline id="_141643720" class="fil0 str0" points="17396.6,8617.41 17366.6,8948.27 17636.7,9083.62 17486.7,9143.77 17391.6,9539.8 17446.6,9760.37 17341.6,9845.6 17356.6,9985.95 16911.5,10156.4 16916.5,10341.9 16881.4,10512.3 "/>
   <polyline id="_141641608" class="fil0 str0" points="16881.4,10512.3 16791.4,10206.5 16661.4,10156.4 16686.4,10091.2 16561.3,10001 16316.3,10056.1 16341.3,10096.2 16136.2,10331.9 16181.2,10562.4 16401.3,10552.4 16481.3,10657.7 16606.4,10627.6 16616.3,10572.5 16681.4,10572.5 "/>
   <polyline id="_141642776" class="fil0 str0" points="15496,13364.7 15365.9,13565.2 15275.9,13409.8 15200.9,13439.9 15315.9,13735.7 15606,13795.8 15646,13730.6 15741.1,13765.7 15656,13640.4 15791.1,13600.3 15496,13364.7 "/>
   <polyline id="_141643320" class="fil0 str0" points="13750.4,12863.4 13750.4,12783.2 13645.4,12728.1 13615.3,12632.8 13485.3,12828.3 13375.3,12703 13400.3,12958.6 13080.2,12873.4 13040.1,12973.7 12830.1,12873.4 "/>
   <polyline id="_141644408" class="fil0 str0" points="12830.1,12873.4 12760.1,12667.9 12545,12803.2 12314.9,12758.1 12284.9,12953.6 12174.9,12923.6 12139.8,12998.7 "/>
   <polyline id="_141647664" class="fil0 str0" points="13475.3,10096.2 13530.3,10161.4 13560.3,10146.4 13570.3,10171.4 13595.3,10171.4 13670.4,10071.2 13720.4,10106.3 13755.4,10081.2 13745.4,10046.1 13605.3,10031.1 13635.4,9985.95 13590.3,9995.98 13585.3,10036.1 13475.3,10096.2 "/>
   <polyline id="_141647856" class="fil0 str0" points="13765.4,11284.3 13880.4,11149 14065.5,11199.1 14060.5,11309.4 14080.5,11349.5 13840.4,11314.4 13820.4,11339.5 13765.4,11284.3 "/>
   <polyline id="_141646704" class="fil0 str0" points="10389.3,11850.8 10339.2,11915.9 10359.2,11961.1 10269.2,11915.9 10204.2,11976.1 10184.2,11961.1 10274.2,11835.7 10324.2,11795.6 "/>
   <polyline id="_141647208" class="fil0 str0" points="10389.3,11850.8 10339.2,11915.9 10359.2,11961.1 10269.2,11915.9 10204.2,11976.1 10184.2,11961.1 10274.2,11835.7 10324.2,11795.6 "/>
   <polyline id="_141647392" class="fil0 str0" points="10324.2,11795.6 10329.2,11775.6 10359.2,11815.7 "/>
   <line id="_141651840" class="fil0 str0" x1="10359.2" y1="11815.7" x2="10389.3" y2= "11850.8" />
   <polyline id="_141649432" class="fil0 str0" points="10389.3,11850.8 10339.2,11915.9 10359.2,11961.1 10269.2,11915.9 10204.2,11976.1 10184.2,11961.1 10274.2,11835.7 10324.2,11795.6 "/>
   <polyline id="_141650168" class="fil0 str0" points="10324.2,11795.6 10274.2,11835.7 10184.2,11961.1 10204.2,11976.1 10269.2,11915.9 10359.2,11961.1 10339.2,11915.9 10389.3,11850.8 "/>
   <line id="_141650672" class="fil0 str0" x1="10389.3" y1="11850.8" x2="10359.2" y2= "11815.7" />
   <polyline id="_141651424" class="fil0 str0" points="10359.2,11815.7 10329.2,11775.6 10324.2,11795.6 "/>
   <polyline id="_141655760" class="fil0 str0" points="10594.3,12096.4 10829.4,11991.1 10789.4,11926 10839.4,11865.8 10764.4,11805.7 10679.4,11850.8 10564.3,11815.7 10509.3,11855.8 10499.3,11971.1 "/>
   <polyline id="_141653296" class="fil0 str0" points="10499.3,11971.1 10449.3,12041.3 10504.3,12141.5 10594.3,12096.4 "/>
   <polyline id="_141653624" class="fil0 str0" points="12044.8,9239.03 12029.8,9244.04 12059.8,9203.93 "/>
   <polyline id="_141654904" class="fil0 str0" points="11159.5,10126.3 11134.5,10186.5 11119.5,10186.5 11109.5,10136.3 "/>
   <polyline id="_141655360" class="fil0 str0" points="11109.5,10136.3 11129.5,10091.2 11164.5,10111.3 11159.5,10126.3 "/>
   <polyline id="_141657104" class="fil0 str0" points="11059.5,8752.77 11044.5,8777.82 11064.5,8807.91 11309.6,8752.77 11324.6,8817.94 11489.6,8707.65 11524.6,8702.64 "/>
   <polyline id="_141657952" class="fil0 str0" points="11524.6,8702.64 11539.6,8667.54 11589.7,8672.55 11584.7,8632.45 "/>
   <polyline id="_141658456" class="fil0 str0" points="11584.7,8632.45 11529.6,8632.45 11514.6,8602.37 11379.6,8577.31 11399.6,8542.23 "/>
   <polyline id="_141659296" class="fil0 str0" points="11399.6,8542.23 11399.6,8512.14 11344.6,8497.1 11304.6,8587.34 11224.5,8582.33 11184.5,8647.5 11059.5,8752.77 "/>
   <polyline id="_141660264" class="fil0 str0" points="10574.3,8722.68 10589.3,8552.24 10529.3,8552.24 10569.3,8507.13 10219.2,8261.49 10084.1,8341.7 10024.1,8266.51 9914.1,8291.58 10044.1,8507.13 9974.12,8552.24 10014.1,8712.67 9984.12,8787.85 10184.2,8802.89 10349.2,8923.21 10309.2,8712.67 10374.3,8612.4 10504.3,8652.51 10519.3,8732.71 "/>
   <line id="_141660616" class="fil0 str0" x1="10519.3" y1="8732.71" x2="10574.3" y2= "8722.68" />
   <polyline id="_141664216" class="fil0 str0" points="13235.2,8356.74 13240.2,8386.82 13230.2,8406.87 13220.2,8401.86 13210.2,8411.89 13220.2,8416.9 13190.2,8431.93 "/>
   <polyline id="_141661480" class="fil0 str0" points="13190.2,8431.93 13185.2,8426.92 13210.2,8396.85 13200.2,8376.79 13235.2,8356.74 "/>
   <polyline id="_141662368" class="fil0 str0" points="14430.6,12246.8 14435.6,12151.6 14385.6,12086.4 14395.6,12016.2 14560.7,11981.1 14595.7,11875.8 14780.7,11860.8 14950.8,11981.1 14950.8,12101.4 15100.8,12216.7 15050.8,12402.2 15260.9,12582.7 15200.9,12657.9 14965.8,12412.2 14830.7,12462.4 14790.7,12497.5 14670.7,12357.1 14545.7,12231.8 14470.6,12276.9 14430.6,12246.8 "/>
   <polyline id="_141663376" class="fil0 str0" points="10274.2,11133.9 10274.2,11244.2 10149.2,11314.4 10109.2,11309.4 10104.2,11133.9 10274.2,11133.9 "/>
   <polyline id="_141664024" class="fil0 str0" points="14675.7,8722.68 14460.6,8627.44 14430.6,8682.58 14375.6,8727.7 14295.6,8682.58 14280.6,8697.62 14335.6,8817.94 14495.6,8953.29 "/>
   <polyline id="_141668864" class="fil0 str0" points="14495.6,8953.29 14470.6,8988.37 14490.6,9003.42 14605.7,8943.26 14590.7,8817.94 14550.7,8777.82 14565.7,8747.75 14660.7,8772.82 14675.7,8722.68 "/>
   <polyline id="_141670936" class="fil0 str0" points="14945.8,9504.71 14830.7,9439.55 14820.8,9489.68 14790.7,9489.68 14785.7,9454.58 14750.7,9459.59 14765.7,9509.72 14735.7,9534.79 14750.7,9544.82 14865.8,9620.02 14945.8,9504.71 "/>
   <polyline id="_141673712" class="fil0 str0" points="11059.5,11329.4 11124.5,11334.4 11124.5,11244.2 11204.5,11329.4 11269.5,11244.2 11299.6,11294.3 11339.6,11264.3 11299.6,11154 11189.5,11008.6 11094.5,10697.8 11099.5,10326.8 10974.5,10487.2 10939.4,10462.2 10904.4,10502.3 10854.4,10477.2 10904.4,10452.2 10999.5,10321.8 10984.5,10251.6 10994.5,10241.6 11109.5,10311.8 11184.5,10181.5 11194.5,10131.3 11229.5,9950.87 11139.5,9940.84 11059.5,10021 11029.5,9955.88 11029.5,10016 10984.5,9970.92 10974.5,9895.72 10954.4,9860.63 10999.5,9835.57 10919.4,9830.56 10959.4,9740.32 10944.4,9705.23 11049.5,9615 11079.5,9625.02 11144.5,9604.97 11149.5,9675.16 11134.5,9705.23 11154.5,9735.3 11234.5,9720.27 11264.6,9620.02 11304.6,9579.9 11269.5,9544.82 11154.5,9544.82 11119.5,9469.62 11134.5,9394.42 11074.5,9359.34 11114.5,9234.01 11084.5,9208.94 11139.5,9133.76 11024.5,9058.56 10989.5,9103.67 10924.4,9028.48 10974.5,8988.37 10994.5,9018.46 11034.5,8988.37 10969.5,8893.13 11004.5,8863.05 11034.5,8888.12 11059.5,8868.06 11044.5,8848.01 11069.5,8827.96 11249.6,8898.15 11304.6,8853.02 11394.6,8888.12 11274.6,9003.42 11299.6,9113.7 11234.5,9123.73 11259.5,9198.91 11194.5,9203.93 11204.5,9314.22 11249.6,9319.24 11299.6,9509.72 11379.6,9539.8 11474.6,9479.65 11599.7,9479.65 11774.7,9354.32 11899.8,9264.08 11939.8,9259.07 11864.8,8968.32 11934.8,8943.26 11969.8,8943.26 11949.8,8858.04 12104.8,8817.94 12134.8,8842.99 12139.8,8893.13 12074.8,8888.12 12074.8,8953.29 12104.8,8973.33 12094.8,9018.46 12079.8,9023.46 12054.8,9038.5 12059.8,9203.93 12044.8,9239.03 12164.9,9229 12500,9359.34 12635,9359.34 12685,9364.35 12760.1,9374.38 13130.2,9705.23 13430.3,9980.94 13455.3,10061.2 13470.3,10412.1 13470.3,10682.8 13470.3,10707.8 "/>
   <polyline id="_141674312" class="fil0 str0" points="13470.3,10707.8 13685.4,10657.7 13700.4,10747.9 13585.3,10773 13610.3,10893.3 13810.4,10878.3 13845.4,10828.1 13995.5,10908.3 13880.4,10968.5 13875.4,11033.7 13695.4,11048.7 13615.3,11138.9 13540.3,11073.8 13515.3,11093.8 13580.3,11159 13550.3,11184.1 13575.3,11204.1 13550.3,11324.4 13410.3,11214.1 13445.3,11344.5 13455.3,11504.9 13415.3,11545 13285.2,11710.4 13220.2,11775.6 13060.2,11936 12700,12196.7 12580,12236.8 12234.9,12196.7 12279.9,12312 12199.9,12347.1 12169.9,12547.6 12149.8,12682.9 12179.9,12698 12239.9,12768.2 12264.9,12873.4 12189.9,12913.5 12154.9,12888.5 12109.8,12858.4 12134.8,12703 12079.8,12672.9 12059.8,12733.1 11999.8,12758.1 12049.8,12803.2 11924.8,12833.3 11959.8,12743.1 11899.8,12672.9 11854.7,12662.9 11814.7,12607.7 11699.7,12587.7 11639.7,12627.8 11624.7,12537.6 11809.7,12482.4 11894.8,12372.1 11984.8,12407.2 12029.8,12327 12004.8,12256.8 11944.8,12216.7 11944.8,12171.6 12019.8,12161.6 11984.8,12096.4 11804.7,12006.2 11434.6,11444.7 11334.6,11439.7 11339.6,11640.2 11304.6,11705.4 11189.5,11695.4 11129.5,11765.6 11009.5,11655.3 10969.5,11690.4 10909.4,11620.2 10919.4,11545 10999.5,11459.8 10974.5,11439.7 10994.5,11324.4 11059.5,11329.4 "/>
   <polygon id="_141676376" class="fil1 str1" points="11059.5,11329.4 11124.5,11334.4 11124.5,11244.2 11204.5,11329.4 11269.5,11244.2 11299.6,11294.3 11339.6,11264.3 11299.6,11154 11189.5,11008.6 11094.5,10697.8 11099.5,10326.8 10974.5,10487.2 10939.4,10462.2 10904.4,10502.3 10854.4,10477.2 10854.4,10477.2 10904.4,10452.2 10999.5,10321.8 10984.5,10251.6 10984.5,10251.6 10994.5,10241.6 11109.5,10311.8 11184.5,10181.5 11194.5,10131.3 11194.5,10131.3 11229.5,9950.87 11139.5,9940.84 11059.5,10021 11029.5,9955.88 11029.5,10016 10984.5,9970.92 10974.5,9895.72 10954.4,9860.63 10999.5,9835.57 10919.4,9830.56 10959.4,9740.32 10944.4,9705.23 11049.5,9615 11079.5,9625.02 11144.5,9604.97 11149.5,9675.16 11134.5,9705.23 11154.5,9735.3 11234.5,9720.27 11264.6,9620.02 11304.6,9579.9 11269.5,9544.82 11154.5,9544.82 11119.5,9469.62 11119.5,9469.62 11134.5,9394.42 11074.5,9359.34 11114.5,9234.01 11084.5,9208.94 11139.5,9133.76 11024.5,9058.56 10989.5,9103.67 10924.4,9028.48 10974.5,8988.37 10994.5,9018.46 11034.5,8988.37 10969.5,8893.13 11004.5,8863.05 11034.5,8888.12 11059.5,8868.06 11044.5,8848.01 11069.5,8827.96 11069.5,8827.96 11249.6,8898.15 11304.6,8853.02 11394.6,8888.12 11274.6,9003.42 11299.6,9113.7 11234.5,9123.73 11259.5,9198.91 11194.5,9203.93 11204.5,9314.22 11249.6,9319.24 11299.6,9509.72 11379.6,9539.8 11474.6,9479.65 11599.7,9479.65 11774.7,9354.32 11774.7,9354.32 11899.8,9264.08 11939.8,9259.07 11864.8,8968.32 11934.8,8943.26 11934.8,8943.26 11969.8,8943.26 11949.8,8858.04 12104.8,8817.94 12134.8,8842.99 12139.8,8893.13 12074.8,8888.12 12074.8,8953.29 12104.8,8973.33 12094.8,9018.46 12079.8,9023.46 12079.8,9023.46 12054.8,9038.5 12059.8,9203.93 12059.8,9203.93 12044.8,9239.03 12044.8,9239.03 12164.9,9229 12500,9359.34 12635,9359.34 12685,9364.35 12685,9364.35 12760.1,9374.38 13130.2,9705.23 13130.2,9705.23 13430.3,9980.94 13455.3,10061.2 13470.3,10412.1 13470.3,10412.1 13470.3,10682.8 13470.3,10682.8 13470.3,10707.8 13685.4,10657.7 13685.4,10657.7 13700.4,10747.9 13585.3,10773 13610.3,10893.3 13810.4,10878.3 13845.4,10828.1 13995.5,10908.3 13995.5,10908.3 13880.4,10968.5 13875.4,11033.7 13695.4,11048.7 13615.3,11138.9 13540.3,11073.8 13515.3,11093.8 13580.3,11159 13550.3,11184.1 13575.3,11204.1 13550.3,11324.4 13550.3,11324.4 13410.3,11214.1 13445.3,11344.5 13455.3,11504.9 13415.3,11545 13415.3,11545 13285.2,11710.4 13220.2,11775.6 13220.2,11775.6 13060.2,11936 12700,12196.7 12580,12236.8 12234.9,12196.7 12279.9,12312 12199.9,12347.1 12169.9,12547.6 12169.9,12547.6 12149.8,12682.9 12179.9,12698 12239.9,12768.2 12264.9,12873.4 12189.9,12913.5 12154.9,12888.5 12154.9,12888.5 12109.8,12858.4 12134.8,12703 12079.8,12672.9 12059.8,12733.1 11999.8,12758.1 12049.8,12803.2 11924.8,12833.3 11959.8,12743.1 11899.8,12672.9 11854.7,12662.9 11854.7,12662.9 11814.7,12607.7 11699.7,12587.7 11639.7,12627.8 11624.7,12537.6 11809.7,12482.4 11894.8,12372.1 11984.8,12407.2 12029.8,12327 12004.8,12256.8 11944.8,12216.7 11944.8,12171.6 12019.8,12161.6 11984.8,12096.4 11804.7,12006.2 11434.6,11444.7 11334.6,11439.7 11339.6,11640.2 11304.6,11705.4 11189.5,11695.4 11129.5,11765.6 11009.5,11655.3 10969.5,11690.4 10909.4,11620.2 10919.4,11545 10999.5,11459.8 10974.5,11439.7 10974.5,11439.7 10994.5,11324.4 "/>
   <polygon id="_141869016" class="fil1 str1" points="13765.4,11284.3 13880.4,11149 14065.5,11199.1 14060.5,11309.4 14080.5,11349.5 13840.4,11314.4 13820.4,11339.5 "/>
   <polygon id="_141426616" class="fil1 str1" points="13475.3,10096.2 13530.3,10161.4 13560.3,10146.4 13570.3,10171.4 13595.3,10171.4 13670.4,10071.2 13720.4,10106.3 13755.4,10081.2 13745.4,10046.1 13605.3,10031.1 13635.4,9985.95 13590.3,9995.98 13585.3,10036.1 "/>
   <polygon id="_141265352" class="fil1 str1" points="10389.3,11850.8 10339.2,11915.9 10359.2,11961.1 10269.2,11915.9 10204.2,11976.1 10184.2,11961.1 10274.2,11835.7 10324.2,11795.6 10324.2,11795.6 10329.2,11775.6 10359.2,11815.7 10359.2,11815.7 "/>
   <polygon id="_141266736" class="fil1 str1" points="10499.3,11971.1 10509.3,11855.8 10564.3,11815.7 10679.4,11850.8 10764.4,11805.7 10839.4,11865.8 10789.4,11926 10829.4,11991.1 10594.3,12096.4 10594.3,12096.4 10504.3,12141.5 10449.3,12041.3 "/>
   <polygon id="_141825400" class="fil1 str1" points="11109.5,10136.3 11129.5,10091.2 11164.5,10111.3 11159.5,10126.3 11159.5,10126.3 11134.5,10186.5 11119.5,10186.5 "/>
   <polygon id="_141827040" class="fil1 str1" points="10574.3,8722.68 10589.3,8552.24 10529.3,8552.24 10569.3,8507.13 10219.2,8261.49 10084.1,8341.7 10024.1,8266.51 9914.1,8291.58 10044.1,8507.13 9974.12,8552.24 10014.1,8712.67 9984.12,8787.85 10184.2,8802.89 10349.2,8923.21 10309.2,8712.67 10374.3,8612.4 10504.3,8652.51 10519.3,8732.71 10519.3,8732.71 "/>
   <polygon id="_26628608" class="fil1 str1" points="11059.5,8752.77 11184.5,8647.5 11224.5,8582.33 11304.6,8587.34 11344.6,8497.1 11399.6,8512.14 11399.6,8542.23 11399.6,8542.23 11379.6,8577.31 11514.6,8602.37 11529.6,8632.45 11584.7,8632.45 11584.7,8632.45 11589.7,8672.55 11539.6,8667.54 11524.6,8702.64 11524.6,8702.64 11489.6,8707.65 11324.6,8817.94 11309.6,8752.77 11064.5,8807.91 11044.5,8777.82 "/>
   <polygon id="_26630560" class="fil1 str1" points="13190.2,8431.93 13185.2,8426.92 13210.2,8396.85 13200.2,8376.79 13235.2,8356.74 13235.2,8356.74 13240.2,8386.82 13230.2,8406.87 13220.2,8401.86 13210.2,8411.89 13220.2,8416.9 "/>
  </g>
 </g>
</svg>
